# Blender 3.1.0
# www.blender.org
mtllib mushwoom.mtl
o Mushroom2
v -2.555845 0.003012 4.869519
v -2.500148 0.128601 4.868822
v -2.520138 -0.000126 4.775397
v -2.480161 0.152677 4.807953
v -2.432892 -0.000009 4.740708
v -2.426810 0.182833 4.783158
v -2.363638 0.002013 4.793309
v -2.374016 0.191705 4.811740
v -2.344102 0.005854 4.886738
v -2.354109 0.194222 4.875468
v -2.361969 0.008646 4.966381
v -2.371880 0.185905 4.933130
v -2.425555 0.015257 5.001422
v -2.419554 0.153265 4.954719
v -2.509532 0.012391 4.963373
v -2.474364 0.128773 4.929311
v -2.491291 0.419467 4.803753
v -2.517653 0.419467 4.868972
v -2.427253 0.419782 4.776684
v -2.369107 0.422876 4.807041
v -2.348036 0.425678 4.875416
v -2.367993 0.422876 4.937017
v -2.425678 0.419782 4.960498
v -2.490177 0.419467 4.933730
v -2.711152 0.306733 4.815025
v -2.567215 0.667472 4.826242
v -2.573542 0.298185 4.626800
v -2.505909 0.663664 4.742387
v -2.343234 0.306198 4.590304
v -2.412775 0.664664 4.726316
v -2.160031 0.325754 4.725757
v -2.346575 0.668745 4.787527
v -2.154559 0.343847 4.948287
v -2.341932 0.674645 4.890080
v -2.292169 0.352395 5.136512
v -2.403237 0.678453 4.973935
v -2.492250 0.346391 5.180172
v -2.494579 0.677939 4.989970
v -2.675452 0.326835 5.044720
v -2.560779 0.673858 4.928760
v -2.444203 0.813226 4.846800
v -2.630520 0.461703 4.824064
v -2.533708 0.455689 4.691642
v -2.371680 0.461327 4.665966
v -2.239394 0.475311 4.762066
v -2.220478 0.488971 4.922281
v -2.317270 0.494990 5.054702
v -2.473119 0.489829 5.081760
v -2.605405 0.475846 4.985660
vn -0.8986 0.3405 -0.2769
vn -0.4226 0.2525 -0.8704
vn 0.5394 0.1419 -0.8300
vn 0.9678 0.0568 -0.2452
vn 0.9637 0.0834 0.2535
vn 0.3981 0.2301 0.8880
vn -0.3948 -0.0323 0.9182
vn -0.4456 0.3356 0.8299
vn -0.8494 0.3726 0.3737
vn 0.0009 -0.9984 0.0567
vn -0.0322 0.9995 0.0003
vn -0.3977 -0.0286 -0.9170
vn 0.9538 -0.0227 0.2996
vn -0.9188 -0.0557 0.3908
vn -0.9342 -0.0505 -0.3531
vn 0.4712 -0.0255 -0.8817
vn 0.3978 -0.0158 0.9173
vn 0.9551 -0.0257 -0.2952
vn -0.7773 0.2453 -0.5794
vn -0.1626 0.2524 -0.9539
vn 0.5564 0.3690 -0.7445
vn 0.8516 0.5116 -0.1144
vn 0.6926 0.5367 0.4819
vn 0.1433 0.4506 0.8811
vn 0.1196 0.7003 0.7038
vn -0.6066 0.3171 0.7290
vn -0.9586 0.2689 0.0936
vn 0.0473 -0.9957 0.0798
vn 0.8130 0.5781 -0.0701
vn -0.5011 0.7101 0.4946
vn -0.1417 0.6053 -0.7833
vn 0.6481 0.6175 0.4458
vn -0.7647 0.6443 0.0079
vn -0.6314 0.6019 -0.4890
vn 0.5223 0.6011 -0.6049
vn -0.8852 0.4549 0.0978
vn -0.5404 0.5207 0.6609
vn 0.1493 0.5293 0.8352
vn 0.7385 0.4286 0.5204
vn 0.8917 0.4429 -0.0936
vn 0.4972 0.4488 -0.7425
vn -0.1567 0.4096 -0.8987
vn -0.7272 0.4104 -0.5503
vt 0.998999 0.101001
vt 0.898999 0.698999
vt 0.198999 0.543450
vt 0.901001 0.101001
vt 0.801001 0.698999
vt 0.398999 0.698999
vt 0.601001 0.401001
vt 0.998999 0.198999
vt 0.098999 0.901001
vt 0.128311 0.598999
vt 0.901001 0.198999
vt 0.001001 0.901001
vt 0.198999 0.601001
vt 0.698999 0.401001
vt 0.098999 0.998999
vt 0.698999 0.198999
vt 0.038409 0.593012
vt 0.001001 0.998999
vt 0.698999 0.001001
vt 0.198999 0.698999
vt 0.598999 0.601001
vt 0.601001 0.198999
vt 0.201001 0.498999
vt 0.001001 0.530159
vt 0.601001 0.001001
vt 0.398999 0.498999
vt 0.598999 0.698999
vt 0.198999 0.701001
vt 0.201001 0.401001
vt 0.998999 0.001001
vt 0.023780 0.455392
vt 0.398999 0.401001
vt 0.901001 0.001001
vt 0.601001 0.201001
vt 0.198999 0.798999
vt 0.998999 0.098999
vt 0.898999 0.801001
vt 0.072951 0.403981
vt 0.901001 0.098999
vt 0.801001 0.801001
vt 0.698999 0.201001
vt 0.701001 0.001001
vt 0.898999 0.898999
vt 0.898999 0.701001
vt 0.142759 0.401001
vt 0.801001 0.898999
vt 0.401001 0.301001
vt 0.801001 0.701001
vt 0.798999 0.001001
vt 0.898999 0.798999
vt 0.898999 0.601001
vt 0.198999 0.458601
vt 0.498999 0.301001
vt 0.801001 0.798999
vt 0.801001 0.601001
vt 0.398999 0.601001
vt 0.898999 0.568761
vt 0.001001 0.601001
vt 0.698999 0.598999
vt 0.870418 0.598999
vt 0.201001 0.698999
vt 0.601001 0.598999
vt 0.898999 0.526447
vt 0.001001 0.698999
vt 0.401001 0.601001
vt 0.869945 0.501001
vt 0.401001 0.698999
vt 0.001001 0.701001
vt 0.829081 0.505354
vt 0.601001 0.398999
vt 0.001001 0.798999
vt 0.801001 0.531195
vt 0.698999 0.398999
vt 0.701001 0.198999
vt 0.401001 0.498999
vt 0.801498 0.569149
vt 0.798999 0.198999
vt 0.498999 0.498999
vt 0.830055 0.598955
vt 0.201001 0.601001
vt 0.001001 0.281463
vt 0.898999 0.198999
vt 0.598999 0.301001
vt 0.798999 0.201001
vt 0.398999 0.801001
vt 0.498999 0.298999
vt 0.401001 0.101001
vt 0.001001 0.117172
vt 0.398999 0.598999
vt 0.598999 0.498999
vt 0.701001 0.201001
vt 0.598999 0.898999
vt 0.598999 0.098999
vt 0.497998 0.101001
vt 0.124916 0.001001
vt 0.598999 0.101001
vt 0.201001 0.598999
vt 0.598999 0.801001
vt 0.798999 0.401001
vt 0.598999 0.002002
vt 0.401001 0.097998
vt 0.296666 0.002366
vt 0.598999 0.598999
vt 0.598999 0.298999
vt 0.701001 0.401001
vt 0.598999 0.798999
vt 0.102002 0.998999
vt 0.401001 0.001001
vt 0.398999 0.126969
vt 0.898999 0.201001
vt 0.401001 0.598999
vt 0.598999 0.701001
vt 0.698999 0.601001
vt 0.198999 0.998999
vt 0.101001 0.901001
vt 0.398999 0.291260
vt 0.898999 0.401001
vt 0.898999 0.398999
vt 0.601001 0.601001
vt 0.198999 0.898999
vt 0.398999 0.798999
vt 0.197998 0.901001
vt 0.296666 0.398999
vt 0.798999 0.898999
vt 0.898999 0.498999
vt 0.198999 0.801001
vt 0.398999 0.702002
vt 0.798999 0.601001
vt 0.201001 0.797998
vt 0.124917 0.397634
vt 0.898999 0.001001
vt 0.601001 0.898999
vt 0.701001 0.601001
vt 0.398999 0.898999
vt 0.201001 0.701001
vt 0.402002 0.298999
vt 0.202002 0.798999
vt 0.198999 0.902002
vt 0.397998 0.701001
vt 0.402002 0.098999
vt 0.101001 0.997998
vt 0.498999 0.102002
vt 0.401001 0.297998
vt 0.597998 0.001001
vt 0.798999 0.398999
vt 0.201001 0.801001
vt 0.801001 0.198999
vt 0.501001 0.301001
vt 0.701001 0.398999
vt 0.401001 0.898999
vt 0.398999 0.501001
vt 0.501001 0.498999
vt 0.401001 0.801001
vt 0.798999 0.598999
vt 0.501001 0.101001
vt 0.201001 0.501001
vt 0.701001 0.598999
vt 0.401001 0.798999
vt 0.598999 0.501001
vt 0.501001 0.298999
vt 0.401001 0.701001
vt 0.698999 0.798999
vt 0.801001 0.201001
vt 0.401001 0.501001
vt 0.601001 0.798999
vt 0.001001 0.898999
vt 0.801001 0.401001
vt 0.801001 0.398999
vt 0.001001 0.801001
vt 0.798999 0.798999
vt 0.798999 0.801001
vt 0.801001 0.498999
vt 0.701001 0.798999
vt 0.201001 0.898999
vt 0.801001 0.001001
vt 0.601001 0.801001
s 1
usemtl Mushroom4_1
f 1/1/1 2/4/1 4/11/1 3/8/1
f 3/9/2 4/12/2 6/18/2 5/15/2
f 5/16/3 6/19/3 8/25/3 7/22/3
f 7/23/4 8/26/4 10/32/4 9/29/4
f 9/30/5 10/33/5 12/39/5 11/36/5
f 11/37/6 12/40/6 14/46/6 13/43/6
f 16/53/7 14/47/7 23/75/7 24/78/7
f 13/44/8 14/48/8 16/54/8 15/50/8
f 15/51/9 16/55/9 2/5/9 1/2/9
f 1/3/10 3/10/10 5/17/10 7/24/10 9/31/10 11/38/10 13/45/10 15/52/10
f 17/57/11 18/60/11 24/79/11 23/76/11 22/72/11 21/69/11 20/66/11 19/63/11
f 6/20/12 4/13/12 17/58/12 19/64/12
f 12/41/13 10/34/13 21/70/13 22/73/13
f 2/6/14 16/56/14 24/80/14 18/61/14
f 4/14/15 2/7/15 18/62/15 17/59/15
f 8/27/16 6/21/16 19/65/16 20/67/16
f 14/49/17 12/42/17 22/74/17 23/77/17
f 10/35/18 8/28/18 20/68/18 21/71/18
usemtl Mushroom4_2
f 42/145/19 26/84/19 28/91/19 43/149/19
f 43/150/20 28/92/20 30/98/20 44/153/20
f 44/154/21 30/99/21 32/105/21 45/157/21
f 45/158/22 32/106/22 34/112/22 46/161/22
f 46/162/23 34/113/23 36/119/23 47/165/23
f 47/166/24 36/120/24 38/126/24 48/169/24
f 38/127/25 36/121/25 41/137/25
f 48/170/26 38/128/26 40/133/26 49/173/26
f 49/174/27 40/134/27 26/85/27 42/146/27
f 25/81/28 27/88/28 29/95/28 31/102/28 33/109/28 35/116/28 37/123/28 39/130/28
f 34/114/29 32/107/29 41/138/29
f 40/135/30 38/129/30 41/139/30
f 30/100/31 28/93/31 41/140/31
f 36/122/32 34/115/32 41/141/32
f 26/86/33 40/136/33 41/142/33
f 28/94/34 26/87/34 41/143/34
f 32/108/35 30/101/35 41/144/35
f 39/131/36 49/175/36 42/147/36 25/82/36
f 37/124/37 48/171/37 49/176/37 39/132/37
f 35/117/38 47/167/38 48/172/38 37/125/38
f 33/110/39 46/163/39 47/168/39 35/118/39
f 31/103/40 45/159/40 46/164/40 33/111/40
f 29/96/41 44/155/41 45/160/41 31/104/41
f 27/89/42 43/151/42 44/156/42 29/97/42
f 25/83/43 42/148/43 43/152/43 27/90/43
