# Blender 3.1.0
# www.blender.org
mtllib smallGrass.mtl
o Grass2
v 0.735995 0.001948 5.008798
v 0.664327 0.383602 5.070951
v 0.684859 0.001948 4.964432
v 0.627817 0.383602 5.039274
v 0.780361 0.001948 4.957661
v 0.694540 0.398123 5.036127
v 0.729224 0.001948 4.913295
v 0.658030 0.398123 5.004451
v 0.557960 0.606075 5.175833
v 0.538991 0.606075 5.159376
v 0.548904 0.626120 5.147949
v 0.567873 0.626120 5.164406
v 0.432653 0.685298 5.301103
v 0.831005 0.001948 4.916075
v 0.819659 0.241212 4.899596
v 0.751774 0.001948 4.916754
v 0.762836 0.241212 4.900083
v 0.830468 0.001948 4.853424
v 0.819274 0.241212 4.854663
v 0.751237 0.001948 4.854103
v 0.762450 0.241212 4.855150
v 0.808803 0.452231 4.834727
v 0.772578 0.452231 4.835038
v 0.772346 0.442722 4.808017
v 0.808572 0.442722 4.807706
v 0.801617 0.601822 4.751659
v 0.778340 0.601822 4.751859
v 0.778221 0.589689 4.738018
v 0.801498 0.589689 4.737818
v 0.788885 0.695891 4.624192
v 0.770362 0.000952 4.962605
v 0.790506 0.239675 4.978510
v 0.814616 0.005306 4.897027
v 0.822244 0.242797 4.931478
v 0.822332 -0.001409 4.997519
v 0.827778 0.237981 5.003550
v 0.866586 0.002945 4.931941
v 0.859516 0.241104 4.956518
v 0.850261 0.448342 5.020245
v 0.870495 0.450333 4.990261
v 0.892904 0.439828 5.004686
v 0.872670 0.437837 5.034669
v 0.922915 0.594825 5.071176
v 0.935916 0.596104 5.051910
v 0.947390 0.583476 5.058815
v 0.934389 0.582197 5.078081
v 1.035288 0.684517 5.138901
vn -0.6363 -0.2389 0.7335
vn -0.7565 0.0148 -0.6538
vn 0.6291 0.2799 -0.7251
vn 0.7521 0.0333 0.6582
vn -0.0000 -1.0000 -0.0000
vn -0.7682 0.0365 -0.6392
vn 0.1931 0.9556 -0.2226
vn 0.5145 0.6194 -0.5930
vn -0.5446 -0.5563 0.6277
vn 0.7412 0.0365 0.6703
vn -0.2681 -0.9125 0.3090
vn 0.7190 0.0400 0.6939
vn -0.7884 0.0400 -0.6139
vn 0.0085 0.0691 0.9976
vn -0.9989 0.0468 0.0086
vn -0.9988 0.0481 0.0026
vn -0.9989 0.0468 0.0083
vn -0.0086 0.0048 -1.0000
vn 0.9989 0.0468 -0.0086
vn 0.9989 0.0468 -0.0088
vn 0.9987 0.0481 -0.0146
vn -0.0083 -0.2274 -0.9738
vn 0.9991 0.0343 -0.0267
vn 0.0082 0.2942 0.9557
vn 0.9987 0.0481 -0.0149
vn -0.9988 0.0481 0.0022
vn -0.0058 -0.7309 -0.6825
vn -0.9994 0.0343 -0.0096
vn -0.0077 -0.4297 -0.9029
vn 0.0075 0.4857 0.8741
vn 0.0051 0.8048 0.5935
vn 0.9967 0.0564 -0.0580
vn -0.9976 0.0564 -0.0409
vn -0.8275 0.1066 -0.5513
vn 0.5579 0.1016 -0.8236
vn 0.5629 0.1026 -0.8202
vn 0.5581 0.1016 -0.8235
vn 0.8295 -0.0329 0.5576
vn -0.5579 -0.0082 0.8299
vn -0.5577 -0.0082 0.8300
vn -0.5529 -0.0072 0.8332
vn -0.0006 -0.9978 -0.0666
vn 0.8076 -0.2636 0.5275
vn -0.5430 -0.0214 0.8394
vn -0.7926 0.3296 -0.5130
vn -0.5526 -0.0071 0.8334
vn 0.5632 0.1027 -0.8199
vn 0.5657 -0.7550 0.3316
vn 0.5732 0.0884 -0.8146
vn 0.7487 -0.4628 0.4745
vn -0.7248 0.5176 -0.4547
vn -0.4918 0.8254 -0.2771
vn -0.5159 -0.0004 0.8566
vn 0.5980 0.1092 -0.7940
vt 0.713285 0.570428
vt 0.286715 0.786715
vt 0.284713 0.427570
vt 0.713285 0.286715
vt 0.570428 0.786715
vt 0.501001 0.001001
vt 0.427570 0.570428
vt 0.643858 0.570428
vt 0.286715 0.641856
vt 0.284713 0.286715
vt 0.643858 0.286715
vt 0.570428 0.641856
vt 0.429572 0.001001
vt 0.570428 0.001001
vt 0.429572 0.570428
vt 0.286715 0.856142
vt 0.143858 0.427570
vt 0.429572 0.286715
vt 0.570428 0.856142
vt 0.427570 0.498999
vt 0.427570 0.501001
vt 0.286715 0.572430
vt 0.498999 0.570428
vt 0.143858 0.286715
vt 0.570428 0.572430
vt 0.498999 0.286715
vt 0.498999 0.001001
vt 0.427570 0.429572
vt 0.501001 0.284713
vt 0.143858 0.570428
vt 0.286715 0.929572
vt 0.998999 0.570428
vt 0.429572 0.284713
vt 0.570428 0.284713
vt 0.286715 0.997998
vt 0.929572 0.286715
vt 0.498999 0.284713
vt 0.570428 0.998999
vt 0.143858 0.429572
vt 0.997998 0.286715
vt 0.570428 0.930573
vt 0.143858 0.498999
vt 0.143858 0.501001
vt 0.930573 0.570428
vt 0.287716 0.998999
vt 0.569427 0.929572
vt 0.998999 0.287716
vt 0.929572 0.569427
vt 0.427570 0.284713
vt 0.001001 0.643858
vt 0.427570 0.427570
vt 0.427570 0.001001
vt 0.284713 0.643858
vt 0.572430 0.001001
vt 0.284713 0.784713
vt 0.286715 0.284713
vt 0.001001 0.641856
vt 0.427570 0.286715
vt 0.286715 0.001001
vt 0.284713 0.641856
vt 0.641856 0.001001
vt 0.572430 0.286715
vt 0.143858 0.284713
vt 0.001001 0.713285
vt 0.286715 0.427570
vt 0.143858 0.001001
vt 0.284713 0.713285
vt 0.570428 0.286715
vt 0.284713 0.715287
vt 0.001001 0.572430
vt 0.284713 0.284713
vt 0.286715 0.286715
vt 0.284713 0.572430
vt 0.284713 0.001001
vt 0.501001 0.286715
vt 0.641856 0.286715
vt 0.570428 0.713285
vt 0.572430 0.284713
vt 0.001001 0.784713
vt 0.284713 0.786715
vt 0.641856 0.284713
vt 0.572430 0.570428
vt 0.570428 0.715287
vt 0.284713 0.856142
vt 0.501001 0.570428
vt 0.641856 0.570428
vt 0.570428 0.784713
vt 0.643858 0.001001
vt 0.570428 0.570428
vt 0.570428 0.643858
vt 0.001001 0.715287
vt 0.713285 0.001001
vt 0.286715 0.713285
vt 0.001001 0.786715
vt 0.998999 0.284713
vt 0.856142 0.859145
vt 0.286715 0.715287
vt 0.001001 0.856142
vt 0.930573 0.284713
vt 0.859145 0.856142
vt 0.284713 0.998999
vt 0.286715 0.784713
vt 0.643858 0.284713
vt 0.927570 0.856142
vt 0.286715 0.643858
vt 0.284713 0.930573
vt 0.713285 0.284713
vt 0.856142 0.927570
vt 0.002002 0.998999
vt 0.998999 0.002002
vt 0.573431 0.927570
vt 0.927570 0.573431
vt 0.141856 0.570428
vt 0.572430 0.643858
vt 0.856142 0.141856
vt 0.141856 0.286715
vt 0.856142 0.643858
vt 0.786715 0.143858
vt 0.856142 0.856142
vt 0.001001 0.570428
vt 0.572430 0.641856
vt 0.856142 0.001001
vt 0.001001 0.286715
vt 0.856142 0.641856
vt 0.856142 0.143858
vt 0.858144 0.001001
vt 0.001001 0.284713
vt 0.572430 0.713285
vt 0.715287 0.141856
vt 0.001001 0.001001
vt 0.856142 0.713285
vt 0.784713 0.143858
vt 0.856142 0.786715
vt 0.572430 0.572430
vt 0.141856 0.284713
vt 0.715287 0.001001
vt 0.856142 0.572430
vt 0.141856 0.001001
vt 0.715287 0.143858
vt 0.927570 0.001001
vt 0.856142 0.784713
vt 0.786715 0.427570
vt 0.572430 0.856142
vt 0.570428 0.858144
vt 0.856142 0.427570
vt 0.858144 0.284713
vt 0.284713 0.858144
vt 0.570428 0.927570
vt 0.715287 0.427570
vt 0.927570 0.284713
vt 0.284713 0.927570
vt 0.858144 0.286715
vt 0.784713 0.427570
vt 0.856142 0.715287
vt 0.572430 0.786715
vt 0.927570 0.286715
vt 0.572430 0.784713
vt 0.286715 0.858144
vt 0.997998 0.001001
vt 0.572430 0.926569
vt 0.001001 0.858144
vt 0.286715 0.927570
vt 0.929572 0.001001
vt 0.926569 0.572430
vt 0.001001 0.997998
vt 0.001001 0.927570
vt 0.858144 0.570428
vt 0.858144 0.572430
vt 0.572430 0.715287
vt 0.001001 0.929572
vt 0.927570 0.570428
vt 0.572430 0.858144
vt 0.283712 0.929572
vt 0.929572 0.283712
vt 0.855141 0.858144
vt 0.858144 0.855141
s 1
usemtl Grass1_1.001
f 1/1/1 2/4/1 4/11/1 3/8/1
f 3/9/2 4/12/2 8/25/2 7/22/2
f 7/23/3 8/26/3 6/18/3 5/15/3
f 5/16/4 6/19/4 2/5/4 1/2/4
f 3/10/5 7/24/5 5/17/5 1/3/5
f 8/27/6 4/13/6 10/33/6 11/37/6
f 12/41/7 11/38/7 13/45/7
f 6/20/8 8/28/8 11/39/8 12/42/8
f 4/14/9 2/6/9 9/29/9 10/34/9
f 2/7/10 6/21/10 12/43/10 9/30/10
f 10/35/11 9/31/11 13/46/11
f 9/32/12 12/44/12 13/47/12
f 11/40/13 10/36/13 13/48/13
f 14/49/14 15/52/14 17/59/14 16/56/14
f 16/57/15 17/60/16 21/73/17 20/70/15
f 20/71/18 21/74/18 19/66/18 18/63/18
f 18/64/19 19/67/20 15/53/21 14/50/19
f 16/58/5 20/72/5 18/65/5 14/51/5
f 19/68/22 21/75/22 24/85/22 25/89/22
f 22/77/23 25/90/23 29/105/23 26/93/23
f 17/61/24 15/54/24 22/78/24 23/81/24
f 15/55/21 19/69/20 25/91/25 22/79/25
f 21/76/17 17/62/16 23/82/26 24/86/26
f 29/106/27 28/101/27 30/109/27
f 24/87/28 23/83/28 27/97/28 28/102/28
f 25/92/29 24/88/29 28/103/29 29/107/29
f 23/84/30 22/80/30 26/94/30 27/98/30
f 27/99/31 26/95/31 30/110/31
f 26/96/32 29/108/32 30/111/32
f 28/104/33 27/100/33 30/112/33
f 31/113/34 32/116/34 34/123/34 33/120/34
f 33/121/35 34/124/36 38/137/37 37/134/35
f 37/135/38 38/138/38 36/130/38 35/127/38
f 35/128/39 36/131/40 32/117/41 31/114/39
f 33/122/42 37/136/42 35/129/42 31/115/42
f 36/132/43 38/139/43 41/149/43 42/153/43
f 39/141/44 42/154/44 46/169/44 43/157/44
f 34/125/45 32/118/45 39/142/45 40/145/45
f 32/119/41 36/133/40 42/155/46 39/143/46
f 38/140/37 34/126/36 40/146/47 41/150/47
f 46/170/48 45/165/48 47/173/48
f 41/151/49 40/147/49 44/161/49 45/166/49
f 42/156/50 41/152/50 45/167/50 46/171/50
f 40/148/51 39/144/51 43/158/51 44/162/51
f 44/163/52 43/159/52 47/174/52
f 43/160/53 46/172/53 47/175/53
f 45/168/54 44/164/54 47/176/54
