# Blender 3.1.0
# www.blender.org
mtllib stump.mtl
o Stump1
v 8.115685 -0.000378 4.692636
v 8.029632 0.540024 4.697062
v 7.821442 -0.000378 5.378936
v 7.792611 0.540024 5.364315
v 7.157618 -0.000378 5.754588
v 7.153193 0.540024 5.668535
v 6.428220 -0.000378 5.495492
v 6.083424 -0.000378 4.776195
v 6.181720 0.540024 4.792096
v 6.354763 -0.000378 4.067123
v 6.418741 0.540024 4.124843
v 7.053733 -0.000378 3.734570
v 7.783131 -0.000378 3.993665
v 7.687554 1.947870 5.269536
v 7.888327 1.947870 4.704329
v 7.145926 1.947870 5.527230
v 6.580719 1.947870 5.326458
v 6.323025 1.947870 4.784829
v 6.523797 1.947870 4.219622
v 7.065430 1.887020 3.961882
v 7.630632 1.947870 4.162700
v 7.792611 1.947870 5.364315
v 8.029632 1.947870 4.697062
v 6.485940 1.947870 5.431514
v 6.181720 1.947870 4.792096
v 7.058159 1.947870 3.820623
v 7.725412 1.947870 4.057643
v 7.060995 2.876462 3.875769
v 6.666749 2.598273 4.063342
v 7.472403 2.598273 4.021909
v 7.065475 2.876462 3.962894
v 6.731524 2.598273 4.121780
v 7.413965 2.598273 4.086684
v 7.391225 1.921419 4.729894
v 7.086696 1.924349 5.014560
v 6.837831 1.921912 4.649435
v 7.178699 1.922167 4.466430
v 7.687554 1.887023 5.269536
v 7.888327 1.887023 4.704329
v 7.145926 1.887023 5.527230
v 6.580719 1.887023 5.326458
v 6.323025 1.887023 4.784829
v 6.523797 1.887023 4.219622
v 7.630632 1.887023 4.162700
v 7.153193 1.947870 5.668535
v 6.418741 1.947870 4.124843
v 7.792611 1.039652 5.364315
v 8.029632 1.039652 4.697062
v 7.792611 1.493761 5.364315
v 6.485940 0.540025 5.431514
v 7.058159 0.540025 3.820623
v 7.725412 0.540025 4.057643
v 8.029632 1.493761 4.697062
v 8.400330 1.580588 5.040009
v 8.400330 1.404024 5.040009
v 8.290516 1.404024 5.349154
v 8.290516 1.580588 5.349154
v 8.416114 1.627743 4.995574
v 8.416114 1.356869 4.995574
v 8.274732 1.356869 5.393589
v 8.274732 1.627743 5.393589
v 8.336721 1.561363 5.017415
v 8.336721 1.384799 5.017415
v 8.226908 1.384799 5.326559
v 8.226908 1.561363 5.326559
vn 0.9098 0.1417 0.3901
vn 0.4876 0.1412 0.8616
vn -0.3312 0.1457 0.9323
vn -0.8916 0.1496 0.4274
vn -0.9238 0.1471 -0.3535
vn -0.4250 0.1457 -0.8934
vn -0.3347 -0.0000 0.9423
vn 0.3312 0.1457 -0.9323
vn 0.8934 0.1457 -0.4250
vn -0.0000 -1.0000 -0.0000
vn 0.9030 -0.0000 -0.4296
vn -0.4296 -0.0000 -0.9030
vn 0.3347 -0.0000 -0.9423
vn 0.9423 -0.0000 0.3347
vn -0.0000 1.0000 -0.0000
vn -0.3354 -0.0009 0.9421
vn 0.3337 0.0782 -0.9394
vn -0.3803 0.8232 0.4215
vn 0.6306 0.7755 -0.0324
vn 0.7060 0.3096 0.6369
vn -0.6369 0.3096 0.7060
vn -0.4598 0.0540 -0.8864
vn 0.4296 -0.0013 0.9030
vn 0.0005 1.0000 0.0024
vn -0.3348 -0.0000 0.9423
vn -0.9423 -0.0000 -0.3347
vn -0.9030 -0.0000 0.4296
vn 0.0703 0.9972 0.0250
vn -0.0569 0.9980 0.0271
vn -0.0318 0.9978 -0.0578
vn 0.0516 0.9979 -0.0388
vn 0.4296 -0.0000 0.9030
vn -0.2614 0.9608 -0.0928
vn 0.6113 -0.0000 -0.7914
vn -0.0606 -0.0000 0.9982
vn 0.5317 -0.8256 0.1889
vn 0.2581 -0.9618 0.0917
vn -0.2581 0.9618 -0.0917
vn 0.9407 0.0592 0.3341
vn 0.4291 0.0473 0.9020
vn -0.8934 0.1457 0.4250
vn -0.9272 0.1783 -0.3294
vn -0.3347 -0.0014 0.9423
vn 0.3665 0.0540 -0.9289
vn -0.6306 0.7755 0.0324
vn 0.4215 0.8232 0.3803
vn -0.4283 0.0782 -0.9002
vn 0.4303 -0.0009 0.9027
vn 0.0021 1.0000 -0.0081
vn 0.4297 -0.0000 0.9030
vn 0.0456 0.9982 0.0386
vn 0.0327 0.9971 0.0688
vn -0.0269 0.9968 0.0757
vn -0.0588 0.9977 0.0334
vn -0.0745 0.9969 -0.0265
vn -0.0299 0.9976 -0.0628
vn 0.0268 0.9968 -0.0755
vn 0.0674 0.9972 -0.0320
vt 1.000000 0.500000
vt 0.000000 0.500000
vt 0.750000 0.490000
vt 0.000000 1.000000
vt 1.000000 1.000000
vt 0.875000 0.500000
vt 0.919706 0.419706
vt 0.875000 1.000000
vt 0.750000 0.500000
vt 0.990000 0.250000
vt 0.750000 1.000000
vt 0.625000 0.500000
vt 0.919706 0.080294
vt 0.500000 0.500000
vt 0.750000 0.010000
vt 0.500000 1.000000
vt 0.375000 0.500000
vt 0.580294 0.080294
vt 0.375000 1.000000
vt 0.250000 0.500000
vt 0.510000 0.250000
vt 0.125000 0.500000
vt 0.580294 0.419706
vt 0.393752 0.393752
vt 0.250000 0.453296
vt 0.453296 0.250000
vt 0.393752 0.106248
vt 0.250000 0.046704
vt 0.106248 0.106248
vt 0.046704 0.250000
vt 0.106248 0.393752
vt 0.875000 1.000000
vt 0.419706 0.419706
vt 0.000000 1.000000
vt 1.000000 1.000000
vt 0.250000 0.490000
vt 0.625000 1.000000
vt 0.419706 0.080294
vt 0.250000 0.010000
vt 0.500000 1.000000
vt 0.250000 1.000000
vt 0.125000 1.000000
vt 0.080294 0.419706
vt 0.250000 1.000000
vt 0.010000 0.250000
vt 0.080294 0.080294
vt 0.375000 1.000000
vt 0.125000 1.000000
vt 0.080294 0.419706
vt 0.046704 0.250000
vt 0.106248 0.106248
vt 0.106248 0.393752
vt 0.250000 0.324172
vt 0.308597 0.242089
vt 0.223776 0.186690
vt 0.184278 0.270401
vt 0.393752 0.393752
vt 0.250000 0.453296
vt 0.453296 0.250000
vt 0.393752 0.106248
vt 0.250000 0.046704
vt 0.106248 0.106248
vt 0.106248 0.393752
vt 0.490000 0.250000
vt 0.750000 1.000000
vt 0.080294 0.080294
vt 0.375000 1.000000
vt 0.875000 1.000000
vt 0.000000 1.000000
vt 1.000000 1.000000
vt 0.875000 1.000000
vt 0.625000 1.000000
vt 0.250000 1.000000
vt 0.125000 1.000000
vt 1.000000 1.000000
vt 0.000000 1.000000
vt 0.986045 1.000000
vt 0.986045 1.000000
vt 0.888955 1.000000
vt 0.888955 1.000000
vt 0.000000 1.000000
vt 1.000000 1.000000
vt 0.000000 1.000000
vt 1.000000 1.000000
vt 0.875000 1.000000
vt 0.875000 1.000000
vt 0.986045 1.000000
vt 0.986045 1.000000
vt 0.888955 1.000000
vt 0.888955 1.000000
s 0
usemtl Stump1_1
f 2/5/1 3/6/1 1/1/1
f 3/6/2 6/11/2 5/9/2
f 6/11/3 7/12/3 5/9/3
f 7/12/4 9/16/4 8/14/4
f 8/14/5 11/19/5 10/17/5
f 11/19/6 12/20/6 10/17/6
f 45/65/7 24/37/7 50/72/7
f 51/73/8 13/22/8 12/20/8
f 52/74/9 1/2/9 13/22/9
f 12/21/10 13/23/10 3/7/10
f 17/27/11 42/61/11 18/28/11
f 46/67/12 26/41/12 51/73/12
f 51/73/13 27/42/13 52/74/13
f 52/74/11 23/34/11 53/76/11
f 53/75/14 22/32/14 49/71/14
f 14/24/15 23/36/15 15/25/15
f 16/26/15 22/33/15 14/24/15
f 17/27/15 45/64/15 16/26/15
f 18/28/15 24/38/15 17/27/15
f 18/28/15 46/66/15 25/39/15
f 20/30/16 33/52/16 31/50/16
f 26/41/17 30/48/17 27/42/17
f 15/25/15 27/43/15 21/31/15
f 32/51/18 28/45/18 29/46/18
f 33/52/19 28/45/19 31/50/19
f 21/31/20 30/49/20 33/52/20
f 19/29/21 29/46/21 46/66/21
f 26/41/22 29/47/22 28/44/22
f 20/30/23 32/51/23 19/29/23
f 34/53/24 37/56/24 36/55/24
f 14/24/12 40/59/12 16/26/12
f 20/30/25 44/63/25 21/31/25
f 18/28/14 43/62/14 19/29/14
f 16/26/13 41/60/13 17/27/13
f 15/25/26 38/57/26 14/24/26
f 21/31/27 39/58/27 15/25/27
usemtl Stump1_2
f 34/53/28 38/57/28 39/58/28
f 35/54/29 42/61/29 41/60/29
f 37/56/30 43/62/30 36/55/30
f 34/53/31 44/63/31 37/56/31
usemtl Stump1_1
f 2/5/14 47/68/14 4/8/14
f 52/74/11 48/69/11 2/4/11
f 11/19/26 25/40/26 46/67/26
f 4/8/32 45/65/32 6/11/32
f 9/16/27 50/72/27 25/40/27
f 49/71/33 58/82/33 53/75/33
f 52/74/11 53/76/11 48/69/11
f 56/79/13 65/90/13 57/80/13
f 53/76/34 59/83/34 48/69/34
f 49/71/35 60/85/35 61/86/35
f 47/68/36 59/84/36 60/85/36
f 55/78/14 58/82/14 54/77/14
f 56/79/14 59/84/14 55/78/14
f 57/80/14 60/85/14 56/79/14
f 57/80/14 58/82/14 61/86/14
usemtl Stump1_2
f 63/88/14 65/90/14 64/89/14
usemtl Stump1_1
f 55/78/7 62/87/7 63/88/7
f 57/80/37 62/87/37 54/77/37
f 55/78/38 64/89/38 56/79/38
f 2/5/39 4/8/39 3/6/39
f 3/6/40 4/8/40 6/11/40
f 6/11/3 50/72/3 7/12/3
f 7/12/41 50/72/41 9/16/41
f 8/14/42 9/16/42 11/19/42
f 11/19/6 51/73/6 12/20/6
f 51/73/8 52/74/8 13/22/8
f 52/74/9 2/4/9 1/2/9
f 13/23/10 1/3/10 3/7/10
f 3/7/10 5/10/10 7/13/10
f 7/13/10 8/15/10 3/7/10
f 8/15/10 10/18/10 3/7/10
f 10/18/10 12/21/10 3/7/10
f 17/27/11 41/60/11 42/61/11
f 50/72/27 24/37/27 25/40/27
f 51/73/13 26/41/13 27/42/13
f 49/71/32 22/32/32 45/65/32
f 52/74/11 27/42/11 23/34/11
f 53/75/14 23/35/14 22/32/14
f 14/24/15 22/33/15 23/36/15
f 16/26/15 45/64/15 22/33/15
f 17/27/15 24/38/15 45/64/15
f 18/28/15 25/39/15 24/38/15
f 18/28/15 19/29/15 46/66/15
f 20/30/43 21/31/43 33/52/43
f 26/41/44 28/44/44 30/48/44
f 15/25/15 23/36/15 27/43/15
f 32/51/45 31/50/45 28/45/45
f 33/52/46 30/49/46 28/45/46
f 21/31/20 27/43/20 30/49/20
f 19/29/21 32/51/21 29/46/21
f 26/41/47 46/67/47 29/47/47
f 20/30/48 31/50/48 32/51/48
f 35/54/49 34/53/49 36/55/49
f 14/24/12 38/57/12 40/59/12
f 18/28/14 42/61/14 43/62/14
f 16/26/13 40/59/13 41/60/13
f 15/25/26 39/58/26 38/57/26
f 21/31/27 44/63/27 39/58/27
f 19/29/50 43/62/50 20/30/50
usemtl Stump1_2
f 34/53/51 35/54/51 38/57/51
f 35/54/52 40/59/52 38/57/52
f 35/54/53 41/60/53 40/59/53
f 35/54/54 36/55/54 42/61/54
f 36/55/55 43/62/55 42/61/55
f 37/56/56 20/30/56 43/62/56
f 37/56/57 44/63/57 20/30/57
f 34/53/58 39/58/58 44/63/58
usemtl Stump1_1
f 2/5/14 48/70/14 47/68/14
f 11/19/26 9/16/26 25/40/26
f 4/8/32 47/68/32 45/65/32
f 11/19/12 46/67/12 51/73/12
f 6/11/7 45/65/7 50/72/7
f 49/71/33 61/86/33 58/82/33
f 47/68/32 49/71/32 45/65/32
f 56/79/13 64/89/13 65/90/13
f 53/76/34 58/81/34 59/83/34
f 49/71/35 47/68/35 60/85/35
f 47/68/36 48/70/36 59/84/36
f 55/78/14 59/84/14 58/82/14
f 56/79/14 60/85/14 59/84/14
f 57/80/14 61/86/14 60/85/14
f 57/80/14 54/77/14 58/82/14
usemtl Stump1_2
f 63/88/14 62/87/14 65/90/14
usemtl Stump1_1
f 55/78/7 54/77/7 62/87/7
f 57/80/37 65/90/37 62/87/37
f 55/78/38 63/88/38 64/89/38
